<?xml version="1.0" encoding="UTF-8"?>
<svg width="20px" height="20px" viewBox="0 0 20 20" version="1.1" xmlns="http://www.w3.org/2000/svg" xmlns:xlink="http://www.w3.org/1999/xlink">
    <!-- Generator: Sketch 62 (91390) - https://sketch.com -->
    <style type="text/css">
	      .st0 {stroke:#ffffff; fill:#ffffff};
    </style>
    <title>Group 2</title>
    <desc>Created with Sketch.</desc>

    <g id="Symbols" stroke="none" stroke-width="1" fill="none" fill-rule="evenodd">
        <g id="Iconography/Support">
            <g id="Group-2">
                <path class="st0" d="M10.6792969,11.7851562 C10.6714844,11.3320312 10.7095703,11.0175781 10.7935547,10.8417969 C10.8775391,10.6660156 11.0933594,10.4335938 11.4410156,10.1445312 C12.1128906,9.5859375 12.5513672,9.14453125 12.7564453,8.8203125 C12.9615234,8.49609375 13.0640625,8.15234375 13.0640625,7.7890625 C13.0640625,7.1328125 12.7847656,6.55761719 12.2261719,6.06347656 C11.6675781,5.56933594 10.915625,5.32226562 9.9703125,5.32226562 C9.071875,5.32226562 8.34628906,5.56640625 7.79355469,6.0546875 C7.24082031,6.54296875 6.94296875,7.13671875 6.9,7.8359375 L8.41171875,8.0234375 C8.5171875,7.53515625 8.71054687,7.171875 8.99179687,6.93359375 C9.27304687,6.6953125 9.62265625,6.57617188 10.040625,6.57617188 C10.4742187,6.57617188 10.8189453,6.69042969 11.0748047,6.91894531 C11.3306641,7.14746094 11.4585937,7.421875 11.4585937,7.7421875 C11.4585937,7.97265625 11.3863281,8.18359375 11.2417969,8.375 C11.1480469,8.49609375 10.8609375,8.75195312 10.3804687,9.14257812 C9.9,9.53320312 9.5796875,9.88476562 9.41953125,10.1972656 C9.259375,10.5097656 9.17929687,10.9082031 9.17929687,11.3925781 C9.17929687,11.4394531 9.18125,11.5703125 9.18515625,11.7851562 L10.6792969,11.7851562 Z M10.6851562,14.8535156 L10.6851562,13.3535156 L9.18515625,13.3535156 L9.18515625,14.8535156 L10.6851562,14.8535156 Z" id="?" fill="#000000" fill-rule="nonzero"></path>
                <circle class="st1" id="Oval" stroke="#ffffff" stroke-width="1.8" cx="10" cy="10" r="9.1"></circle>
            </g>
        </g>
    </g>
</svg>
