<svg id="Layer_1" data-name="Layer 1" xmlns="http://www.w3.org/2000/svg" viewBox="0 0 92 92"><title>mail-icon</title><path d="M46,0A46,46,0,1,0,92,46,46,46,0,0,0,46,0Zm0,90.56A44.56,44.56,0,1,1,90.56,46,44.61,44.61,0,0,1,46,90.56Z" transform="translate(0)"/><path d="M71.87,28.75H20.13a1.43,1.43,0,0,0-1.44,1.44V63.25a1.44,1.44,0,0,0,1.44,1.44H71.87a1.44,1.44,0,0,0,1.44-1.44V30.19A1.43,1.43,0,0,0,71.87,28.75Zm0,34.5H20.13V30.19H71.87Z" transform="translate(0)"/><path d="M24.1,35.13,45.25,46.38a1.4,1.4,0,0,0,1.46,0L67.9,35.13a.71.71,0,1,0-.67-1.26L46,45.14,24.77,33.87a.71.71,0,1,0-.67,1.26Z" transform="translate(0)"/></svg>