<?xml version="1.0" encoding="utf-8"?>
<!-- Generator: Adobe Illustrator 22.1.0, SVG Export Plug-In . SVG Version: 6.00 Build 0)  -->
<svg version="1.1" id="Layer_1" xmlns="http://www.w3.org/2000/svg" xmlns:xlink="http://www.w3.org/1999/xlink" x="0px" y="0px"
	 viewBox="0 0 170 14.7" style="enable-background:new 0 0 170 14.7;" xml:space="preserve">
<style type="text/css">
	.st0{fill:none;}
</style>
<g>
	<path d="M3.1,6.5h1.1c1.9,0,3.5-0.2,3.5-2.2c0-1.6-1.4-2-2.5-2h-2V6.5z M3.1,12.8h1.4c1.7,0,3.3-0.4,3.3-2.2c0-2.1-1.8-2.4-3.5-2.4
		H3.1L3.1,12.8z M1.1,0.7h3.6c2.8,0,4.7,0.9,4.7,3.4C9.5,6,8.4,7,6.7,7.4v0c1.8,0.2,3.1,1.4,3.1,3.3c0,2.9-2.4,3.6-5.1,3.6H1.1
		L1.1,0.7z"/>
	<path d="M18.6,2.5l-2.7,6.8h5.4L18.6,2.5z M17.7,0.7h2l5.7,13.7h-2.1l-1.4-3.4h-6.6l-1.4,3.4h-2L17.7,0.7z"/>
	<path d="M28.3,0.7H31l5.9,11h0v-11h1.9v13.7h-2.5L30.3,3.1h0v11.2h-1.9L28.3,0.7z"/>
	<path d="M53.5,3.1c-0.9-0.6-2-0.9-3.7-0.9c-3.1,0-5.2,2.3-5.2,5.3c0,3.2,2.3,5.3,5.1,5.3c1.3,0,1.7-0.1,2.2-0.2V8.5H49V6.9h4.8V14
		c-0.7,0.3-2,0.6-4.1,0.6c-4.3,0-7.1-2.8-7.1-7.1c0-4.2,3-7,7.1-7c2,0,2.8,0.3,4,0.7L53.5,3.1z"/>
	<path d="M87.5,12.9c3.1,0,4.4-2.6,4.4-5.3c0-2.8-1.5-5.4-4.4-5.3c-3,0-4.4,2.6-4.4,5.3C83.1,10.3,84.4,12.9,87.5,12.9 M87.5,0.5
		c4.1,0,6.5,3,6.5,7.1c0,4.2-2.4,7.1-6.5,7.1S81,11.7,81,7.5C81,3.5,83.4,0.5,87.5,0.5"/>
	<path d="M97.8,0.7h1.9v11.9h5.6v1.7h-7.6V0.7z"/>
	<path d="M118.4,8.7c0,3.8-1.9,5.9-5.2,5.9c-3.3,0-5.2-2.1-5.2-5.9v-8h1.9v7.8c0,2.6,0.8,4.4,3.3,4.4c2.5,0,3.3-1.8,3.3-4.4V0.7h1.9
		V8.7z"/>
	<path d="M123.1,0.7h7.2v1.7H125v4h5v1.7h-5v6.2h-1.9V0.7z"/>
	<path d="M141,2.8c-1-0.4-1.5-0.6-2.5-0.6c-1.1,0-2.4,0.4-2.4,1.8c0,2.6,5.8,2,5.8,6.5c0,2.9-2.2,4.1-4.9,4.1
		c-0.9,0-1.9-0.3-2.8-0.6l0.2-1.8c0.7,0.3,1.8,0.7,2.8,0.7c1.1,0,2.6-0.6,2.6-2.2c0-3.1-5.8-2.2-5.8-6.5c0-2.4,1.9-3.7,4.3-3.7
		c0.9,0,2,0.2,2.9,0.5L141,2.8z"/>
	<path d="M146.3,0.7h7.6v1.7h-5.6v4h5.1v1.7h-5.1v4.5h5.6v1.7h-7.6V0.7z"/>
	<path d="M158.3,0.7h2.6l5.9,11h0v-11h1.9v13.7h-2.5l-6.1-11.2h0v11.2h-1.9V0.7z"/>
	<path d="M72.5,10.9l1.4-1.4l-1.4-1.4l-1.4,1.4c0,0-3.8-3.9-4.5-4.6c0-0.1-0.4-0.4-0.4-1c0-0.9,0.8-1.5,1.4-1.5c0.5,0,0.9,0.3,1,0.4
		c0.2-0.2,1.3-1.3,1.4-1.4c-0.1-0.1-0.9-1-2.4-1c-2,0-3.4,1.7-3.4,3.4c0,1.7,1.2,2.6,1.4,2.8C65.4,7,64.9,7.5,64.5,8
		c-1.1,1.1-1.8,3.7,0,5.5c1.8,1.8,4.3,1.2,5.4,0c0.6-0.6,0.9-0.9,1.2-1.2l1.9,1.9l1.3-1.4L72.5,10.9z M68.5,12.1
		c-0.7,0.7-1.9,0.9-2.7,0s-0.7-2.1,0-2.8L67,8.1l2.7,2.7C69.8,10.9,69.2,11.5,68.5,12.1z"/>
	<path class="st0" d="M1.2,0.1h11.1v14.2H1.2L1.2,0.1z"/>
</g>
</svg>
